<svg width="7220" height="3347" viewBox="0 0 7220 3347" fill="none" xmlns="http://www.w3.org/2000/svg">
<g clip-path="url(#clip0)">
<path d="M1804.99 1409.48H1365.65C1330.71 1409.44 1297.2 1395.54 1272.5 1370.83C1247.79 1346.12 1233.89 1312.62 1233.85 1277.68V454.906C1233.89 419.961 1247.79 386.46 1272.5 361.75C1297.2 337.041 1330.71 323.142 1365.65 323.103H1804.99C1839.94 323.142 1873.44 337.041 1898.15 361.75C1922.86 386.46 1936.76 419.961 1936.8 454.906V1277.68C1936.76 1312.62 1922.86 1346.12 1898.15 1370.83C1873.44 1395.54 1839.94 1409.44 1804.99 1409.48V1409.48Z" fill="#F2F2F2"/>
<path d="M930.598 1408.47H491.254C456.31 1408.43 422.808 1394.53 398.099 1369.82C373.39 1345.11 359.491 1311.61 359.451 1276.67V453.896C359.491 418.952 373.39 385.45 398.099 360.741C422.808 336.031 456.31 322.132 491.254 322.093H930.598C965.542 322.132 999.044 336.031 1023.75 360.741C1048.46 385.45 1062.36 418.952 1062.4 453.896V1276.67C1062.36 1311.61 1048.46 1345.11 1023.75 1369.82C999.044 1394.53 965.542 1408.43 930.598 1408.47V1408.47Z" fill="#F2F2F2"/>
<path d="M2727.92 1409.89H2288.58C2253.64 1409.85 2220.13 1395.96 2195.42 1371.25C2170.71 1346.54 2156.82 1313.03 2156.78 1278.09V455.32C2156.82 420.375 2170.71 386.874 2195.42 362.164C2220.13 337.455 2253.64 323.556 2288.58 323.517H2727.92C2762.87 323.556 2796.37 337.455 2821.08 362.164C2845.79 386.874 2859.69 420.375 2859.73 455.32V1278.09C2859.69 1313.03 2845.79 1346.54 2821.08 1371.25C2796.37 1395.96 2762.87 1409.85 2727.92 1409.89V1409.89Z" fill="#F2F2F2"/>
<path d="M3610.33 1408.47H3170.99C3136.04 1408.43 3102.54 1394.53 3077.83 1369.82C3053.12 1345.11 3039.22 1311.61 3039.18 1276.67V453.896C3039.22 418.952 3053.12 385.45 3077.83 360.741C3102.54 336.031 3136.04 322.132 3170.99 322.093H3610.33C3645.27 322.132 3678.78 336.031 3703.48 360.741C3728.19 385.45 3742.09 418.952 3742.13 453.896V1276.67C3742.09 1311.61 3728.19 1345.11 3703.48 1369.82C3678.78 1394.53 3645.27 1408.43 3610.33 1408.47V1408.47Z" fill="#F2F2F2"/>
<path d="M4549.35 1408.47H4110C4075.06 1408.43 4041.56 1394.53 4016.85 1369.82C3992.14 1345.11 3978.24 1311.61 3978.2 1276.67V453.896C3978.24 418.952 3992.14 385.45 4016.85 360.741C4041.56 336.031 4075.06 322.132 4110 322.093H4549.35C4584.29 322.132 4617.79 336.031 4642.5 360.741C4667.21 385.45 4681.11 418.952 4681.15 453.896V1276.67C4681.11 1311.61 4667.21 1345.11 4642.5 1369.82C4617.79 1394.53 4584.29 1408.43 4549.35 1408.47V1408.47Z" fill="#F2F2F2"/>
<path d="M5426.34 3244.57H5328.42L5281.82 2866.83L5426.36 2866.84L5426.34 3244.57Z" fill="#FFB8B8"/>
<path d="M5451.32 3339.5L5135.55 3339.49V3335.5C5135.55 3319.36 5138.72 3303.37 5144.9 3288.46C5151.08 3273.55 5160.13 3260 5171.54 3248.59C5182.96 3237.18 5196.51 3228.12 5211.42 3221.95C5226.33 3215.77 5242.31 3212.59 5258.45 3212.59H5258.46L5451.32 3212.6L5451.32 3339.5Z" fill="#2F2E41"/>
<path d="M6520.36 3152.95L6428.04 3185.63L6258.01 2845.13L6394.26 2796.88L6520.36 3152.95Z" fill="#FFB8B8"/>
<path d="M6575.59 3234.09L6277.93 3339.5L6276.6 3335.74C6271.21 3320.52 6268.87 3304.4 6269.71 3288.28C6270.56 3272.16 6274.57 3256.37 6281.51 3241.8C6288.46 3227.23 6298.21 3214.17 6310.21 3203.37C6322.2 3192.57 6336.2 3184.24 6351.42 3178.85L6351.43 3178.85L6533.23 3114.46L6575.59 3234.09Z" fill="#2F2E41"/>
<path d="M5423.62 3117.74C5421.42 3117.74 5419.23 3117.54 5417.06 3117.15L5297.31 3095.38C5289.16 3093.87 5281.77 3089.61 5276.39 3083.3C5271.02 3076.99 5267.97 3069.02 5267.77 3060.74C5250.36 2254.63 5335.95 1712.92 5522.14 1324.64C5525.45 1317.77 5530.88 1312.14 5537.62 1308.57C5544.36 1305.01 5552.07 1303.69 5559.61 1304.82L5990.26 1366.99C5998.12 1368.14 6005.39 1371.85 6010.92 1377.55C6016.45 1383.26 6019.94 1390.63 6020.84 1398.52L6058.81 1733.25C6059.02 1735.06 6059.4 1736.84 6059.95 1738.57L6472.84 2975.67C6475.66 2984.68 6474.84 2994.42 6470.56 3002.83C6466.28 3011.24 6458.88 3017.63 6449.95 3020.65L6338.37 3057.85C6330.16 3060.55 6321.25 3060.21 6313.27 3056.9C6305.28 3053.59 6298.75 3047.53 6294.85 3039.82L5736.34 1986.7C5735.23 1984.48 5733.46 1982.67 5731.27 1981.5C5729.09 1980.33 5726.6 1979.86 5724.14 1980.17C5721.68 1980.48 5719.37 1981.54 5717.54 1983.21C5715.71 1984.88 5714.44 1987.07 5713.91 1989.49L5458.61 3089.49C5456.88 3097.49 5452.47 3104.66 5446.1 3109.8C5439.74 3114.94 5431.8 3117.74 5423.62 3117.74Z" fill="#2F2E41"/>
<path d="M5083.26 671.775C5084.24 676.085 5084.88 680.466 5085.17 684.877L5428.32 882.837L5511.73 834.821L5600.64 951.225L5461.25 1050.58C5449.99 1058.6 5436.43 1062.76 5422.6 1062.42C5408.78 1062.09 5395.44 1057.27 5384.58 1048.71L5030.74 769.56C5014.77 775.471 4997.38 776.38 4980.88 772.167C4964.38 767.954 4949.56 758.817 4938.38 745.973C4927.2 733.128 4920.19 717.185 4918.3 700.263C4916.4 683.342 4919.7 666.243 4927.76 651.243C4935.82 636.242 4948.25 624.05 4963.41 616.289C4978.56 608.527 4995.72 605.564 5012.6 607.793C5029.48 610.022 5045.29 617.338 5057.91 628.767C5070.53 640.196 5079.37 655.197 5083.26 671.775V671.775Z" fill="#FFB8B8"/>
<path d="M5433.04 863.05C5434.07 857.988 5436.18 853.21 5439.23 849.039C5442.28 844.869 5446.19 841.406 5450.7 838.886L5608.17 750.835C5629.09 734.684 5655.56 727.489 5681.78 730.827C5708 734.165 5731.83 747.764 5748.03 768.642C5764.24 789.52 5771.51 815.973 5768.24 842.201C5764.97 868.429 5751.43 892.29 5730.6 908.552L5605.05 1038.93C5601.47 1042.65 5597.12 1045.55 5592.31 1047.44C5587.51 1049.33 5582.35 1050.17 5577.19 1049.88C5572.03 1049.6 5567 1048.21 5562.43 1045.81C5557.85 1043.4 5553.85 1040.04 5550.7 1035.95L5439.79 892.213C5436.64 888.124 5434.4 883.402 5433.23 878.369C5432.07 873.336 5432 868.111 5433.04 863.05Z" fill="#82DDF0"/>
<path d="M5799.73 652.042C5908.09 652.042 5995.93 564.202 5995.93 455.846C5995.93 347.491 5908.09 259.651 5799.73 259.651C5691.38 259.651 5603.54 347.491 5603.54 455.846C5603.54 564.202 5691.38 652.042 5799.73 652.042Z" fill="#FFB8B8"/>
<path d="M5990.78 1408.84C5988.83 1408.84 5986.89 1408.68 5984.96 1408.37L5560.37 1338.76C5555.57 1337.97 5550.99 1336.22 5546.89 1333.61C5542.79 1331 5539.26 1327.59 5536.51 1323.58C5533.77 1319.56 5531.87 1315.04 5530.93 1310.27C5529.98 1305.5 5530.01 1300.59 5531.02 1295.83L5551.68 1198.45C5541.11 1182.67 5455 1045.51 5559.87 916.673C5557.86 870.903 5573.79 826.156 5604.28 791.957C5634.77 757.759 5677.4 736.81 5723.1 733.572L5942.52 716.901C5970.75 714.76 5999.08 719.429 6025.12 730.517C6051.17 741.605 6074.17 758.786 6092.2 780.616C6110.22 802.446 6122.73 828.286 6128.69 855.96C6134.65 883.635 6133.87 912.336 6126.42 939.647L6025.83 1380.89C6024 1388.82 6019.55 1395.9 6013.18 1400.98C6006.82 1406.06 5998.92 1408.83 5990.78 1408.84V1408.84Z" fill="#82DDF0"/>
<path d="M6387.28 1777.81C6394.48 1767.54 6399.34 1755.81 6401.52 1743.46C6403.7 1731.1 6403.14 1718.42 6399.89 1706.31C6396.64 1694.19 6390.77 1682.93 6382.7 1673.33C6374.62 1663.73 6364.54 1656.01 6353.16 1650.73L6111.42 907.461L5971.32 973.938L6235.83 1697.65C6228.22 1717.35 6228.1 1739.16 6235.49 1758.94C6242.88 1778.73 6257.28 1795.11 6275.95 1805C6294.61 1814.88 6316.26 1817.57 6336.78 1812.56C6357.29 1807.55 6375.26 1795.19 6387.28 1777.81V1777.81Z" fill="#FFB8B8"/>
<path d="M6164.89 1031.21L5978.86 1087.4C5973.57 1089 5967.99 1089.44 5962.51 1088.69C5957.04 1087.94 5951.78 1086.02 5947.12 1083.05C5942.45 1080.09 5938.47 1076.16 5935.46 1071.52C5932.45 1066.88 5930.47 1061.65 5929.67 1056.18L5901.43 864.506C5893.39 837.375 5896.44 808.163 5909.91 783.278C5923.38 758.393 5946.17 739.868 5973.28 731.764C6000.39 723.661 6029.61 726.642 6054.53 740.053C6079.45 753.464 6098.03 776.211 6106.19 803.303L6188.57 977.97C6190.93 982.972 6192.18 988.423 6192.24 993.952C6192.3 999.481 6191.17 1004.96 6188.92 1010.01C6186.67 1015.06 6183.36 1019.57 6179.22 1023.23C6175.07 1026.89 6170.18 1029.61 6164.89 1031.21H6164.89Z" fill="#82DDF0"/>
<path d="M5609.02 463.423C5652.58 480.022 5699.99 483.754 5745.61 474.175C5791.22 464.595 5833.13 442.107 5866.32 409.389C5845.75 463.759 5851.5 694.355 5851.5 694.355C5851.5 694.355 6034 607.711 6058.76 592.559C6205 503.059 6003.31 113.731 5835.52 175.131C5807.1 185.53 5783.37 197.767 5771.87 225.758C5746.82 194.855 5699.4 188.152 5662.92 204.025C5626.44 219.898 5600.5 254.297 5586.56 291.557C5575.55 321.624 5571.27 353.74 5574.02 385.64C5576.77 417.541 5586.49 448.45 5602.48 476.189L5609.02 463.423Z" fill="black"/>
<path d="M4752.9 0H263.606C193.715 0.0686045 126.705 27.8633 77.2843 77.2842C27.8634 126.705 0.0686045 193.715 0 263.606V1493.77C0.0686045 1563.66 27.8634 1630.67 77.2843 1680.09C126.705 1729.51 193.715 1757.31 263.606 1757.37H4752.9C4822.79 1757.31 4889.8 1729.51 4939.22 1680.09C4988.64 1630.67 5016.44 1563.66 5016.51 1493.77V263.606C5016.44 193.715 4988.64 126.705 4939.22 77.2842C4889.8 27.8633 4822.79 0.0686045 4752.9 0V0ZM5000.53 1493.77C5000.45 1559.42 4974.33 1622.36 4927.91 1668.78C4881.49 1715.2 4818.55 1741.31 4752.9 1741.4H263.606C197.956 1741.31 135.019 1715.2 88.5979 1668.78C42.1764 1622.36 16.0599 1559.42 15.9761 1493.77V263.606C16.0599 197.956 42.1764 135.019 88.5979 88.5979C135.019 42.1764 197.956 16.0599 263.606 15.9761H4752.9C4818.55 16.0599 4881.49 42.1764 4927.91 88.5979C4974.33 135.019 5000.45 197.956 5000.53 263.606V1493.77Z" fill="#3F3D56"/>
<path d="M708.941 1162.26C689.983 1162.26 671.45 1156.64 655.686 1146.11C639.923 1135.58 627.636 1120.6 620.381 1103.09C613.126 1085.57 611.228 1066.3 614.926 1047.71C618.625 1029.11 627.755 1012.03 641.16 998.625C654.566 985.22 671.646 976.09 690.241 972.392C708.835 968.693 728.109 970.591 745.624 977.846C763.14 985.102 778.111 997.388 788.643 1013.15C799.176 1028.91 804.798 1047.45 804.798 1066.41C804.769 1091.82 794.661 1116.19 776.69 1134.16C758.72 1152.13 734.355 1162.23 708.941 1162.26V1162.26ZM708.941 986.526C693.142 986.526 677.698 991.211 664.562 999.988C651.426 1008.77 641.187 1021.24 635.141 1035.84C629.095 1050.43 627.513 1066.5 630.596 1081.99C633.678 1097.49 641.286 1111.72 652.457 1122.89C663.629 1134.06 677.862 1141.67 693.357 1144.75C708.853 1147.83 724.914 1146.25 739.51 1140.21C754.107 1134.16 766.582 1123.92 775.36 1110.79C784.137 1097.65 788.822 1082.21 788.822 1066.41C788.798 1045.23 780.374 1024.92 765.399 1009.95C750.424 994.973 730.12 986.55 708.941 986.526V986.526Z" fill="#3F3D56"/>
<path d="M705.795 946.586C703.676 946.586 701.644 945.744 700.146 944.246C698.648 942.748 697.807 940.716 697.807 938.598V846.735C697.807 844.616 698.648 842.585 700.146 841.087C701.644 839.589 703.676 838.747 705.795 838.747C707.913 838.747 709.945 839.589 711.443 841.087C712.941 842.585 713.783 844.616 713.783 846.735V938.598C713.783 940.716 712.941 942.748 711.443 944.246C709.945 945.744 707.913 946.586 705.795 946.586Z" fill="#3F3D56"/>
<path d="M581.132 1071.25H489.269C487.151 1071.25 485.119 1070.41 483.621 1068.91C482.123 1067.41 481.281 1065.38 481.281 1063.26C481.281 1061.14 482.123 1059.11 483.621 1057.62C485.119 1056.12 487.151 1055.28 489.269 1055.28H581.132C583.251 1055.28 585.282 1056.12 586.781 1057.62C588.279 1059.11 589.12 1061.14 589.12 1063.26C589.12 1065.38 588.279 1067.41 586.781 1068.91C585.282 1070.41 583.251 1071.25 581.132 1071.25Z" fill="#3F3D56"/>
<path d="M916.631 1071.25H824.768C822.65 1071.25 820.618 1070.41 819.12 1068.91C817.622 1067.41 816.78 1065.38 816.78 1063.26C816.78 1061.14 817.622 1059.11 819.12 1057.62C820.618 1056.12 822.65 1055.28 824.768 1055.28H916.631C918.75 1055.28 920.781 1056.12 922.28 1057.62C923.778 1059.11 924.619 1061.14 924.619 1063.26C924.619 1065.38 923.778 1067.41 922.28 1068.91C920.781 1070.41 918.75 1071.25 916.631 1071.25Z" fill="#3F3D56"/>
<path d="M822.244 983.909C820.654 983.909 819.1 983.434 817.781 982.546C816.462 981.657 815.439 980.395 814.841 978.921C814.244 977.448 814.1 975.829 814.428 974.273C814.756 972.717 815.541 971.294 816.682 970.187L855.152 932.864C856.673 931.389 858.717 930.578 860.836 930.611C862.954 930.643 864.973 931.515 866.448 933.036C867.923 934.556 868.734 936.601 868.702 938.719C868.669 940.837 867.797 942.856 866.276 944.331L827.806 981.654C826.318 983.103 824.322 983.912 822.244 983.909V983.909Z" fill="#3F3D56"/>
<path d="M587.65 983.909C585.573 983.912 583.577 983.103 582.088 981.654L543.618 944.331C542.865 943.601 542.263 942.729 541.847 941.766C541.431 940.803 541.209 939.768 541.193 938.719C541.177 937.67 541.368 936.628 541.754 935.653C542.141 934.678 542.716 933.789 543.447 933.036C544.177 932.283 545.048 931.681 546.011 931.265C546.974 930.849 548.01 930.626 549.059 930.611C550.108 930.595 551.149 930.785 552.125 931.172C553.1 931.559 553.989 932.134 554.742 932.864L593.212 970.187C594.353 971.294 595.138 972.717 595.466 974.273C595.794 975.829 595.65 977.448 595.053 978.921C594.456 980.395 593.432 981.657 592.113 982.546C590.794 983.434 589.24 983.909 587.65 983.909Z" fill="#3F3D56"/>
<path d="M557.168 1202.2C555.598 1202.2 554.063 1201.74 552.755 1200.87C551.447 1200 550.423 1198.77 549.812 1197.33C549.2 1195.88 549.028 1194.29 549.317 1192.74C549.606 1191.2 550.343 1189.78 551.436 1188.65L589.906 1149.03C591.382 1147.51 593.402 1146.64 595.521 1146.61C597.639 1146.58 599.684 1147.39 601.204 1148.87C602.724 1150.34 603.595 1152.36 603.626 1154.48C603.658 1156.6 602.846 1158.64 601.37 1160.16L562.9 1199.78C562.155 1200.55 561.264 1201.16 560.28 1201.57C559.295 1201.99 558.237 1202.2 557.168 1202.2V1202.2Z" fill="#3F3D56"/>
<path d="M868.702 1210.19C867.637 1210.19 866.581 1209.98 865.599 1209.57C864.617 1209.15 863.729 1208.55 862.986 1207.78L816.528 1160.18C815.796 1159.43 815.218 1158.54 814.829 1157.56C814.439 1156.59 814.246 1155.55 814.258 1154.5C814.271 1153.45 814.491 1152.42 814.904 1151.45C815.317 1150.49 815.916 1149.62 816.667 1148.88C817.417 1148.15 818.305 1147.57 819.279 1147.18C820.252 1146.79 821.293 1146.6 822.342 1146.61C823.391 1146.63 824.427 1146.85 825.391 1147.26C826.355 1147.67 827.228 1148.27 827.96 1149.02L874.418 1196.63C875.516 1197.75 876.258 1199.17 876.551 1200.72C876.844 1202.26 876.674 1203.86 876.064 1205.31C875.454 1206.76 874.43 1207.99 873.12 1208.86C871.811 1209.73 870.274 1210.19 868.702 1210.19Z" fill="#3F3D56"/>
<path d="M705.795 1290.07C703.676 1290.07 701.644 1289.23 700.146 1287.73C698.648 1286.23 697.807 1284.2 697.807 1282.08V1190.22C697.807 1188.1 698.648 1186.07 700.146 1184.57C701.644 1183.08 703.676 1182.23 705.795 1182.23C707.913 1182.23 709.945 1183.08 711.443 1184.57C712.941 1186.07 713.783 1188.1 713.783 1190.22V1282.08C713.783 1284.2 712.941 1286.23 711.443 1287.73C709.945 1289.23 707.913 1290.07 705.795 1290.07Z" fill="#3F3D56"/>
<path d="M1750.69 1218.18H1484.04C1456.8 1217.72 1430.83 1206.58 1411.74 1187.15C1392.64 1167.73 1381.93 1141.58 1381.93 1114.34C1381.93 1087.09 1392.64 1060.94 1411.74 1041.52C1430.83 1022.09 1456.8 1010.95 1484.04 1010.49H1504.43C1514.55 989.067 1530.52 970.946 1550.51 958.223C1570.49 945.5 1593.67 938.696 1617.36 938.598C1649.58 938.893 1680.47 951.445 1703.76 973.702C1727.06 995.96 1741 1026.25 1742.75 1058.42H1750.69C1771.65 1058.76 1791.63 1067.33 1806.33 1082.28C1821.03 1097.22 1829.27 1117.34 1829.27 1138.3C1829.27 1159.26 1821.03 1179.38 1806.33 1194.32C1791.63 1209.27 1771.65 1217.83 1750.69 1218.18V1218.18ZM1484.04 1026.47C1461.04 1026.93 1439.14 1036.39 1423.03 1052.82C1406.93 1069.24 1397.91 1091.33 1397.91 1114.34C1397.91 1137.34 1406.93 1159.43 1423.03 1175.85C1439.14 1192.28 1461.04 1201.74 1484.04 1202.2H1750.69C1767.41 1201.86 1783.33 1194.97 1795.03 1183.03C1806.74 1171.08 1813.29 1155.02 1813.29 1138.3C1813.29 1121.58 1806.74 1105.52 1795.03 1093.57C1783.33 1081.63 1767.41 1074.74 1750.69 1074.4H1735.01C1732.89 1074.4 1730.86 1073.55 1729.36 1072.06C1727.86 1070.56 1727.02 1068.53 1727.02 1066.41C1727.27 1037.05 1715.87 1008.78 1695.31 987.82C1674.76 966.855 1646.72 954.899 1617.36 954.574C1595.9 954.688 1574.93 961.103 1557.08 973.024C1539.22 984.944 1525.26 1001.85 1516.92 1021.63C1516.3 1023.07 1515.28 1024.29 1513.97 1025.15C1512.67 1026.01 1511.14 1026.47 1509.58 1026.47H1484.04Z" fill="#3F3D56"/>
<path d="M2641.43 1066.86L2635.2 1052.15C2647.28 1047.04 2657.93 1039.03 2666.18 1028.84C2674.44 1018.64 2680.06 1006.57 2682.54 993.688C2685.03 980.806 2684.3 967.51 2680.43 954.974C2676.56 942.439 2669.66 931.05 2660.34 921.814C2651.03 912.577 2639.58 905.777 2627.01 902.014C2614.44 898.251 2601.14 897.641 2588.28 900.238C2575.42 902.835 2563.4 908.558 2553.27 916.904C2543.15 925.249 2535.24 935.958 2530.23 948.087L2515.47 941.994C2521.47 927.441 2530.96 914.59 2543.11 904.576C2555.26 894.563 2569.69 887.694 2585.12 884.578C2600.55 881.462 2616.51 882.194 2631.59 886.709C2646.67 891.224 2660.41 899.383 2671.59 910.466C2682.77 921.549 2691.05 935.215 2695.7 950.257C2700.34 965.298 2701.21 981.252 2698.23 996.71C2695.25 1012.17 2688.51 1026.65 2678.6 1038.89C2668.69 1051.12 2655.93 1060.73 2641.43 1066.86V1066.86Z" fill="#3F3D56"/>
<path d="M2653.34 1218.18H2386.69C2359.45 1217.72 2333.49 1206.58 2314.39 1187.15C2295.29 1167.73 2284.58 1141.58 2284.58 1114.34C2284.58 1087.09 2295.29 1060.94 2314.39 1041.52C2333.49 1022.09 2359.45 1010.95 2386.69 1010.49H2407.08C2417.2 989.067 2433.17 970.946 2453.16 958.223C2473.14 945.5 2496.32 938.696 2520.02 938.598C2552.23 938.893 2583.12 951.445 2606.42 973.702C2629.71 995.96 2643.65 1026.25 2645.41 1058.42H2653.34C2674.3 1058.76 2694.28 1067.33 2708.98 1082.28C2723.68 1097.22 2731.92 1117.34 2731.92 1138.3C2731.92 1159.26 2723.68 1179.38 2708.98 1194.32C2694.28 1209.27 2674.3 1217.83 2653.34 1218.18V1218.18ZM2386.69 1026.47C2363.69 1026.93 2341.79 1036.39 2325.68 1052.82C2309.58 1069.24 2300.56 1091.33 2300.56 1114.34C2300.56 1137.34 2309.58 1159.43 2325.68 1175.85C2341.79 1192.28 2363.69 1201.74 2386.69 1202.2H2653.34C2670.06 1201.86 2685.98 1194.97 2697.68 1183.03C2709.39 1171.08 2715.94 1155.02 2715.94 1138.3C2715.94 1121.58 2709.39 1105.52 2697.68 1093.57C2685.98 1081.63 2670.06 1074.74 2653.34 1074.4H2637.66C2635.54 1074.4 2633.51 1073.55 2632.01 1072.06C2630.51 1070.56 2629.67 1068.53 2629.67 1066.41C2629.92 1037.05 2618.52 1008.78 2597.96 987.82C2577.41 966.855 2549.38 954.899 2520.02 954.574C2498.55 954.688 2477.58 961.103 2459.73 973.024C2441.87 984.944 2427.91 1001.85 2419.57 1021.63C2418.95 1023.07 2417.93 1024.29 2416.62 1025.15C2415.32 1026.01 2413.79 1026.47 2412.23 1026.47H2386.69Z" fill="#3F3D56"/>
<path d="M3556 1178.24H3523.93C3521.81 1178.24 3519.78 1177.4 3518.28 1175.9C3516.79 1174.4 3515.94 1172.37 3515.94 1170.25C3515.94 1168.13 3516.79 1166.1 3518.28 1164.6C3519.78 1163.11 3521.81 1162.26 3523.93 1162.26H3556C3572.72 1161.92 3588.63 1155.03 3600.34 1143.09C3612.04 1131.14 3618.59 1115.08 3618.59 1098.36C3618.59 1081.64 3612.04 1065.58 3600.34 1053.63C3588.63 1041.69 3572.72 1034.8 3556 1034.46H3540.31C3538.19 1034.46 3536.16 1033.61 3534.66 1032.12C3533.16 1030.62 3532.32 1028.59 3532.32 1026.47C3532.58 997.107 3521.17 968.845 3500.62 947.88C3480.06 926.915 3452.03 914.959 3422.67 914.634C3401.2 914.748 3380.24 921.163 3362.38 933.084C3344.52 945.004 3330.56 961.905 3322.22 981.69C3321.6 983.126 3320.58 984.349 3319.28 985.209C3317.97 986.068 3316.44 986.527 3314.88 986.527H3289.34C3266.34 986.988 3244.44 996.448 3228.34 1012.88C3212.23 1029.3 3203.22 1051.39 3203.22 1074.4C3203.22 1097.4 3212.23 1119.49 3228.34 1135.91C3244.44 1152.34 3266.34 1161.8 3289.34 1162.26H3314.1C3316.22 1162.26 3318.25 1163.11 3319.75 1164.6C3321.25 1166.1 3322.09 1168.13 3322.09 1170.25C3322.09 1172.37 3321.25 1174.4 3319.75 1175.9C3318.25 1177.4 3316.22 1178.24 3314.1 1178.24H3289.34C3262.1 1177.78 3236.14 1166.64 3217.04 1147.21C3197.94 1127.79 3187.24 1101.64 3187.24 1074.4C3187.24 1047.15 3197.94 1021 3217.04 1001.58C3236.14 982.155 3262.1 971.011 3289.34 970.551H3309.73C3319.85 949.127 3335.83 931.005 3355.81 918.283C3375.8 905.56 3398.98 898.756 3422.67 898.658C3454.88 898.953 3485.78 911.505 3509.07 933.762C3532.36 956.019 3546.3 986.311 3548.06 1018.48H3556C3576.95 1018.82 3596.94 1027.39 3611.63 1042.34C3626.33 1057.28 3634.57 1077.4 3634.57 1098.36C3634.57 1119.32 3626.33 1139.44 3611.63 1154.38C3596.94 1169.33 3576.95 1177.89 3556 1178.24V1178.24Z" fill="#3F3D56"/>
<path d="M3421.35 1212.72C3419.23 1212.72 3417.2 1211.88 3415.7 1210.38C3414.2 1208.89 3413.36 1206.85 3413.36 1204.74V1112.87C3413.36 1110.75 3414.2 1108.72 3415.7 1107.22C3417.2 1105.73 3419.23 1104.88 3421.35 1104.88C3423.46 1104.88 3425.5 1105.73 3426.99 1107.22C3428.49 1108.72 3429.33 1110.75 3429.33 1112.87V1204.74C3429.33 1206.85 3428.49 1208.89 3426.99 1210.38C3425.5 1211.88 3423.46 1212.72 3421.35 1212.72V1212.72Z" fill="#3F3D56"/>
<path d="M3365.43 1260.65C3363.31 1260.65 3361.28 1259.81 3359.78 1258.31C3358.28 1256.81 3357.44 1254.78 3357.44 1252.66V1160.8C3357.44 1158.68 3358.28 1156.65 3359.78 1155.15C3361.28 1153.65 3363.31 1152.81 3365.43 1152.81C3367.55 1152.81 3369.58 1153.65 3371.08 1155.15C3372.58 1156.65 3373.42 1158.68 3373.42 1160.8V1252.66C3373.42 1254.78 3372.58 1256.81 3371.08 1258.31C3369.58 1259.81 3367.55 1260.65 3365.43 1260.65Z" fill="#3F3D56"/>
<path d="M3477.26 1284.62C3475.14 1284.62 3473.11 1283.77 3471.61 1282.28C3470.12 1280.78 3469.27 1278.75 3469.27 1276.63V1184.77C3469.27 1182.65 3470.12 1180.61 3471.61 1179.12C3473.11 1177.62 3475.14 1176.78 3477.26 1176.78C3479.38 1176.78 3481.41 1177.62 3482.91 1179.12C3484.41 1180.61 3485.25 1182.65 3485.25 1184.77V1276.63C3485.25 1278.75 3484.41 1280.78 3482.91 1282.28C3481.41 1283.77 3479.38 1284.62 3477.26 1284.62V1284.62Z" fill="#3F3D56"/>
<path d="M4458.65 1178.24H4426.58C4424.47 1178.24 4422.43 1177.4 4420.94 1175.9C4419.44 1174.4 4418.6 1172.37 4418.6 1170.25C4418.6 1168.13 4419.44 1166.1 4420.94 1164.6C4422.43 1163.11 4424.47 1162.26 4426.58 1162.26H4458.65C4475.37 1161.92 4491.29 1155.03 4502.99 1143.09C4514.69 1131.14 4521.25 1115.08 4521.25 1098.36C4521.25 1081.64 4514.69 1065.58 4502.99 1053.63C4491.29 1041.69 4475.37 1034.8 4458.65 1034.46H4442.96C4440.84 1034.46 4438.81 1033.61 4437.31 1032.12C4435.82 1030.62 4434.97 1028.59 4434.97 1026.47C4435.23 997.107 4423.83 968.845 4403.27 947.88C4382.71 926.915 4354.68 914.959 4325.32 914.634C4303.85 914.748 4282.89 921.163 4265.03 933.084C4247.17 945.004 4233.21 961.905 4224.87 981.69C4224.26 983.126 4223.23 984.349 4221.93 985.209C4220.62 986.068 4219.09 986.527 4217.53 986.527H4191.99C4168.99 986.988 4147.09 996.448 4130.99 1012.88C4114.89 1029.3 4105.87 1051.39 4105.87 1074.4C4105.87 1097.4 4114.89 1119.49 4130.99 1135.91C4147.09 1152.34 4168.99 1161.8 4191.99 1162.26H4216.76C4218.87 1162.26 4220.91 1163.11 4222.4 1164.6C4223.9 1166.1 4224.74 1168.13 4224.74 1170.25C4224.74 1172.37 4223.9 1174.4 4222.4 1175.9C4220.91 1177.4 4218.87 1178.24 4216.76 1178.24H4191.99C4164.75 1177.78 4138.79 1166.64 4119.69 1147.21C4100.59 1127.79 4089.89 1101.64 4089.89 1074.4C4089.89 1047.15 4100.59 1021 4119.69 1001.58C4138.79 982.155 4164.75 971.011 4191.99 970.551H4212.39C4222.5 949.127 4238.48 931.005 4258.46 918.283C4278.45 905.56 4301.63 898.756 4325.32 898.658C4357.53 898.953 4388.43 911.505 4411.72 933.762C4435.01 956.019 4448.95 986.311 4450.71 1018.48H4458.65C4479.61 1018.82 4499.59 1027.39 4514.29 1042.34C4528.98 1057.28 4537.22 1077.4 4537.22 1098.36C4537.22 1119.32 4528.98 1139.44 4514.29 1154.38C4499.59 1169.33 4479.61 1177.89 4458.65 1178.24V1178.24Z" fill="#3F3D56"/>
<path d="M4311.56 1158.27C4321.49 1158.27 4329.53 1150.22 4329.53 1140.3C4329.53 1130.37 4321.49 1122.32 4311.56 1122.32C4301.63 1122.32 4293.59 1130.37 4293.59 1140.3C4293.59 1150.22 4301.63 1158.27 4311.56 1158.27Z" fill="#3F3D56"/>
<path d="M4371.47 1182.23C4381.4 1182.23 4389.44 1174.19 4389.44 1164.26C4389.44 1154.33 4381.4 1146.29 4371.47 1146.29C4361.54 1146.29 4353.5 1154.33 4353.5 1164.26C4353.5 1174.19 4361.54 1182.23 4371.47 1182.23Z" fill="#3F3D56"/>
<path d="M4271.62 1210.19C4281.54 1210.19 4289.59 1202.15 4289.59 1192.22C4289.59 1182.29 4281.54 1174.25 4271.62 1174.25C4261.69 1174.25 4253.65 1182.29 4253.65 1192.22C4253.65 1202.15 4261.69 1210.19 4271.62 1210.19Z" fill="#3F3D56"/>
<path d="M4335.52 1250.13C4345.45 1250.13 4353.5 1242.09 4353.5 1232.16C4353.5 1222.23 4345.45 1214.19 4335.52 1214.19C4325.6 1214.19 4317.55 1222.23 4317.55 1232.16C4317.55 1242.09 4325.6 1250.13 4335.52 1250.13Z" fill="#3F3D56"/>
<path d="M934.604 571.147H471.296C454.348 571.147 438.093 564.414 426.109 552.43C414.124 540.445 407.392 524.191 407.392 507.242C407.392 490.294 414.124 474.039 426.109 462.055C438.093 450.07 454.348 443.338 471.296 443.338H934.604C951.553 443.338 967.807 450.07 979.791 462.055C991.776 474.039 998.509 490.294 998.509 507.242C998.509 524.191 991.776 540.445 979.791 552.43C967.807 564.414 951.553 571.147 934.604 571.147Z" fill="#FF4365"/>
<path d="M1837.26 571.147H1373.95C1357 571.147 1340.74 564.414 1328.76 552.43C1316.78 540.445 1310.04 524.191 1310.04 507.242C1310.04 490.294 1316.78 474.039 1328.76 462.055C1340.74 450.07 1357 443.338 1373.95 443.338H1837.26C1854.2 443.338 1870.46 450.07 1882.44 462.055C1894.43 474.039 1901.16 490.294 1901.16 507.242C1901.16 524.191 1894.43 540.445 1882.44 552.43C1870.46 564.414 1854.2 571.147 1837.26 571.147Z" fill="#FF4365"/>
<path d="M2739.91 571.147H2276.6C2259.65 571.147 2243.4 564.414 2231.41 552.43C2219.43 540.445 2212.69 524.191 2212.69 507.242C2212.69 490.294 2219.43 474.039 2231.41 462.055C2243.4 450.07 2259.65 443.338 2276.6 443.338H2739.91C2756.86 443.338 2773.11 450.07 2785.09 462.055C2797.08 474.039 2803.81 490.294 2803.81 507.242C2803.81 524.191 2797.08 540.445 2785.09 552.43C2773.11 564.414 2756.86 571.147 2739.91 571.147Z" fill="#FF4365"/>
<path d="M3642.56 571.147H3179.25C3162.3 571.147 3146.05 564.414 3134.06 552.43C3122.08 540.445 3115.35 524.191 3115.35 507.242C3115.35 490.294 3122.08 474.039 3134.06 462.055C3146.05 450.07 3162.3 443.338 3179.25 443.338H3642.56C3659.51 443.338 3675.76 450.07 3687.75 462.055C3699.73 474.039 3706.46 490.294 3706.46 507.242C3706.46 524.191 3699.73 540.445 3687.75 552.43C3675.76 564.414 3659.51 571.147 3642.56 571.147Z" fill="#FF4365"/>
<path d="M4545.21 571.147H4081.9C4064.95 571.147 4048.7 564.414 4036.71 552.43C4024.73 540.445 4018 524.191 4018 507.242C4018 490.294 4024.73 474.039 4036.71 462.055C4048.7 450.07 4064.95 443.338 4081.9 443.338H4545.21C4562.16 443.338 4578.41 450.07 4590.4 462.055C4602.38 474.039 4609.11 490.294 4609.11 507.242C4609.11 524.191 4602.38 540.445 4590.4 552.43C4578.41 564.414 4562.16 571.147 4545.21 571.147Z" fill="#FF4365"/>
<path d="M1134.31 1322.02C1132.19 1322.02 1130.15 1321.18 1128.66 1319.69C1127.16 1318.19 1126.32 1316.16 1126.32 1314.04V706.944C1126.32 704.825 1127.16 702.794 1128.66 701.296C1130.15 699.798 1132.19 698.956 1134.31 698.956C1136.42 698.956 1138.46 699.798 1139.95 701.296C1141.45 702.794 1142.29 704.825 1142.29 706.944V1314.04C1142.29 1316.16 1141.45 1318.19 1139.95 1319.69C1138.46 1321.18 1136.42 1322.02 1134.31 1322.02Z" fill="#E6E6E6"/>
<path d="M2036.96 1314.04C2034.84 1314.04 2032.81 1313.2 2031.31 1311.7C2029.81 1310.2 2028.97 1308.17 2028.97 1306.05V698.956C2028.97 696.837 2029.81 694.806 2031.31 693.308C2032.81 691.809 2034.84 690.968 2036.96 690.968C2039.08 690.968 2041.11 691.809 2042.61 693.308C2044.1 694.806 2044.94 696.837 2044.94 698.956V1306.05C2044.94 1308.17 2044.1 1310.2 2042.61 1311.7C2041.11 1313.2 2039.08 1314.04 2036.96 1314.04Z" fill="#E6E6E6"/>
<path d="M2987.54 1314.04C2985.42 1314.04 2983.39 1313.2 2981.89 1311.7C2980.39 1310.2 2979.55 1308.17 2979.55 1306.05V698.956C2979.55 696.837 2980.39 694.806 2981.89 693.308C2983.39 691.809 2985.42 690.968 2987.54 690.968C2989.66 690.968 2991.69 691.809 2993.19 693.308C2994.68 694.806 2995.52 696.837 2995.52 698.956V1306.05C2995.52 1308.17 2994.68 1310.2 2993.19 1311.7C2991.69 1313.2 2989.66 1314.04 2987.54 1314.04Z" fill="#E6E6E6"/>
<path d="M3890.19 1314.04C3888.07 1314.04 3886.04 1313.2 3884.54 1311.7C3883.04 1310.2 3882.2 1308.17 3882.2 1306.05V698.956C3882.2 696.837 3883.04 694.806 3884.54 693.308C3886.04 691.809 3888.07 690.968 3890.19 690.968C3892.31 690.968 3894.34 691.809 3895.84 693.308C3897.33 694.806 3898.18 696.837 3898.18 698.956V1306.05C3898.18 1308.17 3897.33 1310.2 3895.84 1311.7C3894.34 1313.2 3892.31 1314.04 3890.19 1314.04Z" fill="#E6E6E6"/>
</g>
<defs>
<clipPath id="clip0">
<rect width="7219.73" height="3347" fill="white"/>
</clipPath>
</defs>
</svg>
